<svg width="80" height="80" viewBox="0 0 80 80" fill="none" xmlns="http://www.w3.org/2000/svg">
<path d="M40 75.8667C36.3667 75.8667 32.7667 74.8 29.9334 72.7L15.6 62C11.8 59.1667 8.83337 53.2333 8.83337 48.5333V23.7333C8.83337 18.6 12.6 13.1333 17.4334 11.3333L34.0667 5.1C37.3667 3.86667 42.5667 3.86667 45.8667 5.1L62.5 11.3333C67.3334 13.1333 71.1 18.6 71.1 23.7333V48.5C71.1 53.2333 68.1334 59.1333 64.3334 61.9667L50 72.6667C47.2334 74.8 43.6334 75.8667 40 75.8667ZM35.8334 9.8L19.2 16.0333C16.3667 17.1 13.8667 20.7 13.8667 23.7667V48.5333C13.8667 51.7 16.1 56.1333 18.6 58L32.9334 68.7C36.7667 71.5667 43.2334 71.5667 47.1 68.7L61.4334 58C63.9667 56.1 66.1667 51.7 66.1667 48.5333V23.7333C66.1667 20.7 63.6667 17.1 60.8334 16L44.2 9.76667C41.9334 8.96667 38.0667 8.96667 35.8334 9.8Z" fill="#6496FE"/>
<path d="M47.1666 47.3C46.5333 47.3 45.9 47.0667 45.4 46.5667L31.2333 32.4C30.2666 31.4333 30.2666 29.8333 31.2333 28.8667C32.2 27.9 33.8 27.9 34.7666 28.8667L48.9333 43.0333C49.9 44 49.9 45.6 48.9333 46.5667C48.4333 47.0333 47.8 47.3 47.1666 47.3Z" fill="#6496FE"/>
<path d="M32.8333 47.4333C32.2 47.4333 31.5667 47.2 31.0667 46.7C30.1 45.7333 30.1 44.1333 31.0667 43.1667L45.2333 29C46.2 28.0333 47.8 28.0333 48.7667 29C49.7333 29.9667 49.7333 31.5667 48.7667 32.5333L34.6 46.7C34.1333 47.2 33.4667 47.4333 32.8333 47.4333Z" fill="#6496FE"/>
</svg>
